STARTFONT 2.1
FONT pelm.ascii.10
SIZE 17 72 72
FONTBOUNDINGBOX 9 17 0 -3
STARTPROPERTIES 4
FONT_DESCENT 3
FONT_ASCENT 14
DEFAULT_CHAR 0
COPYRIGHT "Copyright (C) 1985 Bigelow & Holmes Inc. All rights reserved."
ENDPROPERTIES
CHARS 127
STARTCHAR ch-0
ENCODING 0
SWIDTH 529 0
DWIDTH 9 0
BBX 9 17 0 -3
BITMAP
0000
0000
0000
1e00
0780
4380
6380
ff80
4180
0f00
0f80
0600
0e00
0e00
0000
0000
0000
ENDCHAR
STARTCHAR ch-1
ENCODING 1
SWIDTH 529 0
DWIDTH 9 0
BBX 9 17 0 -3
BITMAP
0000
0000
ff80
ff80
ff80
ff80
ff80
ff80
ff80
ff80
ff80
ff80
ff80
ff80
ff80
0000
0000
ENDCHAR
STARTCHAR ch-2
ENCODING 2
SWIDTH 529 0
DWIDTH 9 0
BBX 9 17 0 -3
BITMAP
0000
0000
3000
4800
4000
3000
0800
4800
3000
0000
0880
0500
0200
0500
0880
0000
0000
ENDCHAR
STARTCHAR ch-3
ENCODING 3
SWIDTH 529 0
DWIDTH 9 0
BBX 9 17 0 -3
BITMAP
0000
0000
7800
4800
4000
7000
4000
4800
7800
0000
0880
0500
0200
0500
0880
0000
0000
ENDCHAR
STARTCHAR ch-4
ENCODING 4
SWIDTH 529 0
DWIDTH 9 0
BBX 9 17 0 -3
BITMAP
0000
0000
7800
4800
4000
7000
4000
4800
7800
0000
0f80
0200
0200
0200
0200
0000
0000
ENDCHAR
STARTCHAR ch-5
ENCODING 5
SWIDTH 529 0
DWIDTH 9 0
BBX 9 17 0 -3
BITMAP
0000
0000
7800
4800
4000
7000
4000
4800
7800
0700
0880
0880
0a80
0700
0180
0000
0000
ENDCHAR
STARTCHAR ch-6
ENCODING 6
SWIDTH 529 0
DWIDTH 9 0
BBX 9 17 0 -3
BITMAP
0000
0000
2000
5000
8800
8800
f800
8800
8800
0000
1200
1400
1800
1400
1200
0000
0000
ENDCHAR
STARTCHAR ch-7
ENCODING 7
SWIDTH 529 0
DWIDTH 9 0
BBX 9 17 0 -3
BITMAP
0000
0000
0000
0000
1800
3c00
3c00
3c00
3c00
6600
c300
ff00
1800
0000
0000
0000
0000
ENDCHAR
STARTCHAR ch-8
ENCODING 8
SWIDTH 529 0
DWIDTH 9 0
BBX 9 17 0 -3
BITMAP
0000
0000
f000
4800
4800
7800
4800
4800
f300
0480
0400
0300
0080
0480
0300
0000
0000
ENDCHAR
STARTCHAR ch-9
ENCODING 9
SWIDTH 529 0
DWIDTH 9 0
BBX 9 17 0 -3
BITMAP
0000
0000
0000
0000
0400
0200
0100
0080
ff80
0080
0100
0200
0400
0000
0000
0000
0000
ENDCHAR
STARTCHAR ch-10
ENCODING 10
SWIDTH 529 0
DWIDTH 9 0
BBX 9 17 0 -3
BITMAP
0000
0000
0000
ff80
ff80
0000
0000
ff80
ff80
0000
0000
ff80
ff80
0000
0000
0000
0000
ENDCHAR
STARTCHAR ch-11
ENCODING 11
SWIDTH 529 0
DWIDTH 9 0
BBX 9 17 0 -3
BITMAP
0000
0000
8200
4400
4400
2800
1000
0000
1f00
0400
0400
0400
0400
0000
0000
0000
0000
ENDCHAR
STARTCHAR ch-12
ENCODING 12
SWIDTH 529 0
DWIDTH 9 0
BBX 9 17 0 -3
BITMAP
0000
0000
7800
4800
4000
7000
4000
4000
4f00
0900
0800
0e00
0800
0800
0800
0000
0000
ENDCHAR
STARTCHAR ch-13
ENCODING 13
SWIDTH 529 0
DWIDTH 9 0
BBX 9 17 0 -3
BITMAP
0000
0000
0000
0000
1000
2000
4000
8000
ff80
8000
4000
2000
1000
0000
0000
0000
0000
ENDCHAR
STARTCHAR ch-14
ENCODING 14
SWIDTH 529 0
DWIDTH 9 0
BBX 9 17 0 -3
BITMAP
0000
0000
3000
4800
4000
3000
0800
4800
3000
0600
0900
0900
0900
0600
0000
0000
0000
ENDCHAR
STARTCHAR ch-15
ENCODING 15
SWIDTH 529 0
DWIDTH 9 0
BBX 9 17 0 -3
BITMAP
0000
0000
3000
4800
4000
3000
0800
4800
3000
0700
0200
0200
0200
0200
0700
0000
0000
ENDCHAR
STARTCHAR ch-16
ENCODING 16
SWIDTH 529 0
DWIDTH 9 0
BBX 9 17 0 -3
BITMAP
0000
0000
f000
4800
4800
4800
4800
f000
0000
1c00
0800
0800
0900
1f00
0000
0000
0000
ENDCHAR
STARTCHAR ch-17
ENCODING 17
SWIDTH 529 0
DWIDTH 9 0
BBX 9 17 0 -3
BITMAP
0000
0000
f000
4800
4800
4800
4800
f000
0000
0c00
0400
0400
0400
0e00
0000
0000
0000
ENDCHAR
STARTCHAR ch-18
ENCODING 18
SWIDTH 529 0
DWIDTH 9 0
BBX 9 17 0 -3
BITMAP
0000
0000
f000
4800
4800
4800
4800
f000
0f00
0900
0100
0200
0400
0f00
0000
0000
0000
ENDCHAR
STARTCHAR ch-19
ENCODING 19
SWIDTH 529 0
DWIDTH 9 0
BBX 9 17 0 -3
BITMAP
0000
0000
f000
4800
4800
4800
4800
f000
0600
0900
0100
0700
0100
0900
0600
0000
0000
ENDCHAR
STARTCHAR ch-20
ENCODING 20
SWIDTH 529 0
DWIDTH 9 0
BBX 9 17 0 -3
BITMAP
0000
0000
f000
4800
4800
4800
4800
f000
0600
0a00
1200
1f00
0200
0200
0000
0000
0000
ENDCHAR
STARTCHAR ch-21
ENCODING 21
SWIDTH 529 0
DWIDTH 9 0
BBX 9 17 0 -3
BITMAP
0000
0000
c400
a400
a400
9400
9400
8c00
0000
1200
1400
1800
1800
1400
1200
0000
0000
ENDCHAR
STARTCHAR ch-22
ENCODING 22
SWIDTH 529 0
DWIDTH 9 0
BBX 9 17 0 -3
BITMAP
0000
0000
3000
4800
4000
3000
0800
4800
3000
0000
1100
0e00
0400
0400
0400
0000
0000
ENDCHAR
STARTCHAR ch-23
ENCODING 23
SWIDTH 529 0
DWIDTH 9 0
BBX 9 17 0 -3
BITMAP
0000
0000
7800
4800
4000
7000
4000
4800
7800
0000
0700
0480
0700
0480
0700
0000
0000
ENDCHAR
STARTCHAR ch-24
ENCODING 24
SWIDTH 529 0
DWIDTH 9 0
BBX 9 17 0 -3
BITMAP
0000
0000
3800
4400
4000
4000
4400
3800
0000
1880
1480
1680
1280
1180
0000
0000
0000
ENDCHAR
STARTCHAR ch-25
ENCODING 25
SWIDTH 529 0
DWIDTH 9 0
BBX 9 17 0 -3
BITMAP
0000
0000
7800
4800
4000
7000
4000
4800
7800
0000
3180
2a80
2480
2080
2080
0000
0000
ENDCHAR
STARTCHAR ch-26
ENCODING 26
SWIDTH 529 0
DWIDTH 9 0
BBX 9 17 0 -3
BITMAP
0000
0000
3000
4800
4000
3000
0800
4800
3000
0000
0e00
0900
0e00
0900
0e00
0000
0000
ENDCHAR
STARTCHAR ch-27
ENCODING 27
SWIDTH 529 0
DWIDTH 9 0
BBX 9 17 0 -3
BITMAP
0000
0000
7800
4800
4000
7000
4000
4800
7800
0300
0480
0400
0400
0480
0300
0000
0000
ENDCHAR
STARTCHAR ch-28
ENCODING 28
SWIDTH 529 0
DWIDTH 9 0
BBX 9 17 0 -3
BITMAP
0000
0000
7c00
4400
4000
7000
4000
4000
4600
0900
0800
0600
0100
0900
0600
0000
0000
ENDCHAR
STARTCHAR ch-29
ENCODING 29
SWIDTH 529 0
DWIDTH 9 0
BBX 9 17 0 -3
BITMAP
0000
0000
6000
9000
8000
b000
9000
6000
0600
0900
0800
0600
0100
0900
0600
0000
0000
ENDCHAR
STARTCHAR ch-30
ENCODING 30
SWIDTH 529 0
DWIDTH 9 0
BBX 9 17 0 -3
BITMAP
0000
0000
f000
4800
7000
5000
e800
0000
0600
0900
0800
0600
0100
0900
0600
0000
0000
ENDCHAR
STARTCHAR ch-31
ENCODING 31
SWIDTH 529 0
DWIDTH 9 0
BBX 9 17 0 -3
BITMAP
0000
0000
9000
9000
9000
9000
9000
9000
6600
0900
0800
0600
0100
0900
0600
0000
0000
ENDCHAR
STARTCHAR ch-33
ENCODING 33
SWIDTH 529 0
DWIDTH 9 0
BBX 9 17 0 -3
BITMAP
0000
0000
0000
1800
1800
1800
1800
1800
1800
0800
0800
0000
1800
1800
0000
0000
0000
ENDCHAR
STARTCHAR ch-34
ENCODING 34
SWIDTH 529 0
DWIDTH 9 0
BBX 4 17 2 -3
BITMAP
0000
0000
0000
9000
9000
9000
9000
9000
0000
0000
0000
0000
0000
0000
0000
0000
0000
ENDCHAR
STARTCHAR ch-35
ENCODING 35
SWIDTH 529 0
DWIDTH 9 0
BBX 7 17 1 -3
BITMAP
0000
0000
0000
2800
2800
2800
fe00
2800
2800
2800
fe00
2800
2800
2800
0000
0000
0000
ENDCHAR
STARTCHAR ch-36
ENCODING 36
SWIDTH 529 0
DWIDTH 9 0
BBX 7 17 1 -3
BITMAP
0000
0000
1000
7c00
d600
d000
d000
f000
7c00
1e00
1600
1600
d600
7c00
1000
1000
0000
ENDCHAR
STARTCHAR ch-37
ENCODING 37
SWIDTH 529 0
DWIDTH 9 0
BBX 8 17 0 -3
BITMAP
0000
0000
0000
7800
cc00
cc00
7900
0600
1800
6000
9e00
3300
3300
1e00
0000
0000
0000
ENDCHAR
STARTCHAR ch-38
ENCODING 38
SWIDTH 529 0
DWIDTH 9 0
BBX 8 17 0 -3
BITMAP
0000
0000
0000
7800
cc00
cc00
6800
3000
5b00
da00
cc00
cc00
e600
7700
0000
0000
0000
ENDCHAR
STARTCHAR ch-39
ENCODING 39
SWIDTH 529 0
DWIDTH 9 0
BBX 2 17 3 -3
BITMAP
0000
0000
0000
c000
c000
4000
4000
8000
0000
0000
0000
0000
0000
0000
0000
0000
0000
ENDCHAR
STARTCHAR ch-40
ENCODING 40
SWIDTH 529 0
DWIDTH 9 0
BBX 5 17 2 -3
BITMAP
0000
0000
0800
3000
6000
6000
c000
c000
c000
c000
c000
c000
c000
6000
6000
3000
0800
ENDCHAR
STARTCHAR ch-41
ENCODING 41
SWIDTH 529 0
DWIDTH 9 0
BBX 5 17 2 -3
BITMAP
0000
0000
8000
6000
3000
3000
1800
1800
1800
1800
1800
1800
1800
3000
3000
6000
8000
ENDCHAR
STARTCHAR ch-42
ENCODING 42
SWIDTH 529 0
DWIDTH 9 0
BBX 7 17 1 -3
BITMAP
0000
0000
0000
0000
0000
1000
5400
3800
ee00
3800
5400
1000
0000
0000
0000
0000
0000
ENDCHAR
STARTCHAR ch-43
ENCODING 43
SWIDTH 529 0
DWIDTH 9 0
BBX 8 17 0 -3
BITMAP
0000
0000
0000
0000
0000
1800
1800
1800
ff00
ff00
1800
1800
1800
0000
0000
0000
0000
ENDCHAR
STARTCHAR ch-44
ENCODING 44
SWIDTH 529 0
DWIDTH 9 0
BBX 2 17 3 -3
BITMAP
0000
0000
0000
0000
0000
0000
0000
0000
0000
0000
0000
0000
c000
c000
4000
4000
8000
ENDCHAR
STARTCHAR ch-45
ENCODING 45
SWIDTH 529 0
DWIDTH 9 0
BBX 8 17 0 -3
BITMAP
0000
0000
0000
0000
0000
0000
0000
0000
ff00
ff00
0000
0000
0000
0000
0000
0000
0000
ENDCHAR
STARTCHAR ch-46
ENCODING 46
SWIDTH 529 0
DWIDTH 9 0
BBX 2 17 3 -3
BITMAP
0000
0000
0000
0000
0000
0000
0000
0000
0000
0000
0000
0000
c000
c000
0000
0000
0000
ENDCHAR
STARTCHAR ch-47
ENCODING 47
SWIDTH 529 0
DWIDTH 9 0
BBX 8 17 0 -3
BITMAP
0000
0000
0300
0300
0600
0600
0c00
0c00
1800
1800
3000
3000
6000
6000
c000
c000
0000
ENDCHAR
STARTCHAR ch-48
ENCODING 48
SWIDTH 529 0
DWIDTH 9 0
BBX 7 17 1 -3
BITMAP
0000
0000
0000
7c00
c600
c600
c600
c600
c600
c600
c600
c600
c600
7c00
0000
0000
0000
ENDCHAR
STARTCHAR ch-49
ENCODING 49
SWIDTH 529 0
DWIDTH 9 0
BBX 7 17 1 -3
BITMAP
0000
0000
0000
1800
3800
5800
9800
1800
1800
1800
1800
1800
1800
7e00
0000
0000
0000
ENDCHAR
STARTCHAR ch-50
ENCODING 50
SWIDTH 529 0
DWIDTH 9 0
BBX 7 17 1 -3
BITMAP
0000
0000
0000
7c00
c600
c600
0600
0600
0c00
1800
3000
6000
fe00
fe00
0000
0000
0000
ENDCHAR
STARTCHAR ch-51
ENCODING 51
SWIDTH 529 0
DWIDTH 9 0
BBX 7 17 1 -3
BITMAP
0000
0000
0000
7c00
c600
c600
0600
0600
3800
0600
0600
0600
c600
7c00
0000
0000
0000
ENDCHAR
STARTCHAR ch-52
ENCODING 52
SWIDTH 529 0
DWIDTH 9 0
BBX 7 17 1 -3
BITMAP
0000
0000
0000
2c00
2c00
4c00
4c00
8c00
8c00
fe00
fe00
0c00
0c00
3e00
0000
0000
0000
ENDCHAR
STARTCHAR ch-53
ENCODING 53
SWIDTH 529 0
DWIDTH 9 0
BBX 7 17 1 -3
BITMAP
0000
0000
0000
7e00
7e00
4000
4000
7000
1c00
0600
0600
0600
c600
7c00
0000
0000
0000
ENDCHAR
STARTCHAR ch-54
ENCODING 54
SWIDTH 529 0
DWIDTH 9 0
BBX 7 17 1 -3
BITMAP
0000
0000
0000
7c00
c600
c000
c000
c000
fc00
c600
c600
c600
c600
7c00
0000
0000
0000
ENDCHAR
STARTCHAR ch-55
ENCODING 55
SWIDTH 529 0
DWIDTH 9 0
BBX 7 17 1 -3
BITMAP
0000
0000
0000
fe00
fe00
0200
0600
0c00
1800
3000
3000
6000
6000
6000
0000
0000
0000
ENDCHAR
STARTCHAR ch-56
ENCODING 56
SWIDTH 529 0
DWIDTH 9 0
BBX 7 17 1 -3
BITMAP
0000
0000
0000
7c00
c600
c600
e600
7400
3800
5c00
ce00
c600
c600
7c00
0000
0000
0000
ENDCHAR
STARTCHAR ch-57
ENCODING 57
SWIDTH 529 0
DWIDTH 9 0
BBX 7 17 1 -3
BITMAP
0000
0000
0000
7c00
c600
c600
c600
c600
7e00
0600
0600
0600
c600
7c00
0000
0000
0000
ENDCHAR
STARTCHAR ch-58
ENCODING 58
SWIDTH 529 0
DWIDTH 9 0
BBX 2 17 3 -3
BITMAP
0000
0000
0000
0000
0000
c000
c000
0000
0000
0000
0000
0000
c000
c000
0000
0000
0000
ENDCHAR
STARTCHAR ch-59
ENCODING 59
SWIDTH 529 0
DWIDTH 9 0
BBX 2 17 3 -3
BITMAP
0000
0000
0000
0000
0000
c000
c000
0000
0000
0000
0000
0000
c000
c000
4000
4000
8000
ENDCHAR
STARTCHAR ch-60
ENCODING 60
SWIDTH 529 0
DWIDTH 9 0
BBX 6 17 2 -3
BITMAP
0000
0000
0000
0400
0c00
1800
3000
6000
c000
6000
3000
1800
0c00
0400
0000
0000
0000
ENDCHAR
STARTCHAR ch-61
ENCODING 61
SWIDTH 529 0
DWIDTH 9 0
BBX 8 17 0 -3
BITMAP
0000
0000
0000
0000
0000
0000
ff00
ff00
0000
0000
ff00
ff00
0000
0000
0000
0000
0000
ENDCHAR
STARTCHAR ch-62
ENCODING 62
SWIDTH 529 0
DWIDTH 9 0
BBX 6 17 1 -3
BITMAP
0000
0000
0000
8000
c000
6000
3000
1800
0c00
1800
3000
6000
c000
8000
0000
0000
0000
ENDCHAR
STARTCHAR ch-63
ENCODING 63
SWIDTH 529 0
DWIDTH 9 0
BBX 6 17 1 -3
BITMAP
0000
0000
0000
7800
cc00
0c00
0c00
1800
3000
2000
2000
0000
6000
6000
0000
0000
0000
ENDCHAR
STARTCHAR ch-64
ENCODING 64
SWIDTH 529 0
DWIDTH 9 0
BBX 8 17 0 -3
BITMAP
0000
0000
0000
3e00
4100
8100
9f00
b300
b300
b300
9f00
8000
4300
3e00
0000
0000
0000
ENDCHAR
STARTCHAR ch-65
ENCODING 65
SWIDTH 529 0
DWIDTH 9 0
BBX 9 17 0 -3
BITMAP
0000
0000
0000
1c00
1c00
1c00
2600
2600
2600
7f00
4300
4300
4300
4300
0000
0000
0000
ENDCHAR
STARTCHAR ch-66
ENCODING 66
SWIDTH 529 0
DWIDTH 9 0
BBX 7 17 1 -3
BITMAP
0000
0000
0000
fc00
c600
c600
c600
c400
f800
c400
c600
c600
c600
fc00
0000
0000
0000
ENDCHAR
STARTCHAR ch-67
ENCODING 67
SWIDTH 529 0
DWIDTH 9 0
BBX 7 17 1 -3
BITMAP
0000
0000
0000
3e00
6200
c000
c000
c000
c000
c000
c000
c000
6200
3e00
0000
0000
0000
ENDCHAR
STARTCHAR ch-68
ENCODING 68
SWIDTH 529 0
DWIDTH 9 0
BBX 7 17 1 -3
BITMAP
0000
0000
0000
f800
cc00
c600
c600
c600
c600
c600
c600
c600
cc00
f800
0000
0000
0000
ENDCHAR
STARTCHAR ch-69
ENCODING 69
SWIDTH 529 0
DWIDTH 9 0
BBX 6 17 1 -3
BITMAP
0000
0000
0000
fc00
c000
c000
c000
c000
f800
c000
c000
c000
c000
fc00
0000
0000
0000
ENDCHAR
STARTCHAR ch-70
ENCODING 70
SWIDTH 529 0
DWIDTH 9 0
BBX 6 17 1 -3
BITMAP
0000
0000
0000
fc00
c000
c000
c000
c000
f800
c000
c000
c000
c000
c000
0000
0000
0000
ENDCHAR
STARTCHAR ch-71
ENCODING 71
SWIDTH 529 0
DWIDTH 9 0
BBX 7 17 1 -3
BITMAP
0000
0000
0000
3e00
6200
c000
c000
c000
c000
ce00
c600
c600
6600
3e00
0000
0000
0000
ENDCHAR
STARTCHAR ch-72
ENCODING 72
SWIDTH 529 0
DWIDTH 9 0
BBX 7 17 1 -3
BITMAP
0000
0000
0000
c600
c600
c600
c600
c600
fe00
c600
c600
c600
c600
c600
0000
0000
0000
ENDCHAR
STARTCHAR ch-73
ENCODING 73
SWIDTH 529 0
DWIDTH 9 0
BBX 6 17 1 -3
BITMAP
0000
0000
0000
fc00
3000
3000
3000
3000
3000
3000
3000
3000
3000
fc00
0000
0000
0000
ENDCHAR
STARTCHAR ch-74
ENCODING 74
SWIDTH 529 0
DWIDTH 9 0
BBX 6 17 1 -3
BITMAP
0000
0000
0000
fc00
3000
3000
3000
3000
3000
3000
3000
3000
3000
3000
6000
c000
0000
ENDCHAR
STARTCHAR ch-75
ENCODING 75
SWIDTH 529 0
DWIDTH 9 0
BBX 9 17 0 -3
BITMAP
0000
0000
0000
c600
cc00
c800
d800
d000
f000
d800
cc00
cc00
c600
c700
0000
0000
0000
ENDCHAR
STARTCHAR ch-76
ENCODING 76
SWIDTH 529 0
DWIDTH 9 0
BBX 7 17 1 -3
BITMAP
0000
0000
0000
c000
c000
c000
c000
c000
c000
c000
c000
c000
c000
fe00
0000
0000
0000
ENDCHAR
STARTCHAR ch-77
ENCODING 77
SWIDTH 529 0
DWIDTH 9 0
BBX 7 17 1 -3
BITMAP
0000
0000
0000
c600
c600
c600
c600
fe00
b600
b600
b600
b600
8600
8600
0000
0000
0000
ENDCHAR
STARTCHAR ch-78
ENCODING 78
SWIDTH 529 0
DWIDTH 9 0
BBX 7 17 1 -3
BITMAP
0000
0000
0000
c200
e200
e200
b200
b200
9a00
9a00
9a00
8e00
8e00
8600
0000
0000
0000
ENDCHAR
STARTCHAR ch-79
ENCODING 79
SWIDTH 529 0
DWIDTH 9 0
BBX 9 17 0 -3
BITMAP
0000
0000
0000
1c00
3600
6300
6300
6300
6300
6300
6300
6300
3600
1c00
0000
0000
0000
ENDCHAR
STARTCHAR ch-80
ENCODING 80
SWIDTH 529 0
DWIDTH 9 0
BBX 7 17 1 -3
BITMAP
0000
0000
0000
fc00
c600
c600
c600
c600
cc00
f800
c000
c000
c000
c000
0000
0000
0000
ENDCHAR
STARTCHAR ch-81
ENCODING 81
SWIDTH 529 0
DWIDTH 9 0
BBX 9 17 0 -3
BITMAP
0000
0000
0000
1c00
3600
6300
6300
6300
6300
6300
6300
6300
3600
1c00
0600
0300
0000
ENDCHAR
STARTCHAR ch-82
ENCODING 82
SWIDTH 529 0
DWIDTH 9 0
BBX 8 17 0 -3
BITMAP
0000
0000
0000
fc00
c600
c600
c600
c400
f800
cc00
cc00
c600
c600
c700
0000
0000
0000
ENDCHAR
STARTCHAR ch-83
ENCODING 83
SWIDTH 529 0
DWIDTH 9 0
BBX 7 17 1 -3
BITMAP
0000
0000
0000
7c00
c600
c000
c000
f000
7c00
1e00
0600
0600
c600
7c00
0000
0000
0000
ENDCHAR
STARTCHAR ch-84
ENCODING 84
SWIDTH 529 0
DWIDTH 9 0
BBX 8 17 0 -3
BITMAP
0000
0000
0000
ff00
1800
1800
1800
1800
1800
1800
1800
1800
1800
1800
0000
0000
0000
ENDCHAR
STARTCHAR ch-85
ENCODING 85
SWIDTH 529 0
DWIDTH 9 0
BBX 9 17 0 -3
BITMAP
0000
0000
0000
6100
6100
6100
6100
6100
6100
6100
6100
6100
3200
1c00
0000
0000
0000
ENDCHAR
STARTCHAR ch-86
ENCODING 86
SWIDTH 529 0
DWIDTH 9 0
BBX 7 17 1 -3
BITMAP
0000
0000
0000
c600
c200
c200
c200
c600
6400
6400
6400
3800
3800
3800
0000
0000
0000
ENDCHAR
STARTCHAR ch-87
ENCODING 87
SWIDTH 529 0
DWIDTH 9 0
BBX 7 17 1 -3
BITMAP
0000
0000
0000
c600
c200
c200
da00
da00
da00
6c00
6c00
6c00
6c00
6c00
0000
0000
0000
ENDCHAR
STARTCHAR ch-88
ENCODING 88
SWIDTH 529 0
DWIDTH 9 0
BBX 7 17 1 -3
BITMAP
0000
0000
0000
c600
c200
6600
6400
3800
3800
3800
4c00
cc00
8600
c600
0000
0000
0000
ENDCHAR
STARTCHAR ch-89
ENCODING 89
SWIDTH 529 0
DWIDTH 9 0
BBX 8 17 0 -3
BITMAP
0000
0000
0000
c300
c100
c300
6200
6600
3c00
1800
1800
1800
1800
1800
0000
0000
0000
ENDCHAR
STARTCHAR ch-90
ENCODING 90
SWIDTH 529 0
DWIDTH 9 0
BBX 7 17 1 -3
BITMAP
0000
0000
0000
fe00
8600
0600
0c00
1800
3000
6000
c000
c000
c200
fe00
0000
0000
0000
ENDCHAR
STARTCHAR ch-91
ENCODING 91
SWIDTH 529 0
DWIDTH 9 0
BBX 5 17 2 -3
BITMAP
0000
0000
f800
c000
c000
c000
c000
c000
c000
c000
c000
c000
c000
c000
c000
c000
f800
ENDCHAR
STARTCHAR ch-92
ENCODING 92
SWIDTH 529 0
DWIDTH 9 0
BBX 8 17 0 -3
BITMAP
0000
0000
c000
c000
6000
6000
3000
3000
1800
1800
0c00
0c00
0600
0600
0300
0300
0000
ENDCHAR
STARTCHAR ch-93
ENCODING 93
SWIDTH 529 0
DWIDTH 9 0
BBX 5 17 2 -3
BITMAP
0000
0000
f800
1800
1800
1800
1800
1800
1800
1800
1800
1800
1800
1800
1800
1800
f800
ENDCHAR
STARTCHAR ch-94
ENCODING 94
SWIDTH 529 0
DWIDTH 9 0
BBX 7 17 1 -3
BITMAP
0000
0000
0000
1000
3800
2800
6c00
4400
c600
8200
0000
0000
0000
0000
0000
0000
0000
ENDCHAR
STARTCHAR ch-95
ENCODING 95
SWIDTH 529 0
DWIDTH 9 0
BBX 8 17 0 -3
BITMAP
0000
0000
0000
0000
0000
0000
0000
0000
0000
0000
0000
0000
0000
0000
ff00
0000
0000
ENDCHAR
STARTCHAR ch-96
ENCODING 96
SWIDTH 529 0
DWIDTH 9 0
BBX 2 17 3 -3
BITMAP
0000
0000
0000
4000
8000
8000
c000
c000
0000
0000
0000
0000
0000
0000
0000
0000
0000
ENDCHAR
STARTCHAR ch-97
ENCODING 97
SWIDTH 529 0
DWIDTH 9 0
BBX 7 17 1 -3
BITMAP
0000
0000
0000
0000
0000
7c00
c600
0600
0600
7e00
c600
c600
ce00
7600
0000
0000
0000
ENDCHAR
STARTCHAR ch-98
ENCODING 98
SWIDTH 529 0
DWIDTH 9 0
BBX 7 17 1 -3
BITMAP
0000
0000
c000
c000
c000
d800
ec00
c600
c600
c600
c600
c600
cc00
f800
0000
0000
0000
ENDCHAR
STARTCHAR ch-99
ENCODING 99
SWIDTH 529 0
DWIDTH 9 0
BBX 7 17 1 -3
BITMAP
0000
0000
0000
0000
0000
3c00
6600
c600
c000
c000
c000
c000
6600
3c00
0000
0000
0000
ENDCHAR
STARTCHAR ch-100
ENCODING 100
SWIDTH 529 0
DWIDTH 9 0
BBX 7 17 1 -3
BITMAP
0000
0000
0600
0600
0600
3e00
6600
c600
c600
c600
c600
c600
6e00
3600
0000
0000
0000
ENDCHAR
STARTCHAR ch-101
ENCODING 101
SWIDTH 529 0
DWIDTH 9 0
BBX 7 17 1 -3
BITMAP
0000
0000
0000
0000
0000
3c00
6600
c600
c600
fe00
c000
c000
6600
3c00
0000
0000
0000
ENDCHAR
STARTCHAR ch-102
ENCODING 102
SWIDTH 529 0
DWIDTH 9 0
BBX 7 17 1 -3
BITMAP
0000
0000
1e00
3000
3000
fe00
3000
3000
3000
3000
3000
3000
3000
fc00
0000
0000
0000
ENDCHAR
STARTCHAR ch-103
ENCODING 103
SWIDTH 529 0
DWIDTH 9 0
BBX 7 17 1 -3
BITMAP
0000
0000
0000
0000
0000
3e00
6600
c600
c600
c600
c600
c600
6e00
3600
0600
c600
7c00
ENDCHAR
STARTCHAR ch-104
ENCODING 104
SWIDTH 529 0
DWIDTH 9 0
BBX 7 17 1 -3
BITMAP
0000
0000
c000
c000
c000
dc00
ee00
c600
c600
c600
c600
c600
c600
c600
0000
0000
0000
ENDCHAR
STARTCHAR ch-105
ENCODING 105
SWIDTH 529 0
DWIDTH 9 0
BBX 8 17 0 -3
BITMAP
0000
0000
1800
1800
0000
f800
1800
1800
1800
1800
1800
1800
1800
ff00
0000
0000
0000
ENDCHAR
STARTCHAR ch-106
ENCODING 106
SWIDTH 529 0
DWIDTH 9 0
BBX 5 17 1 -3
BITMAP
0000
0000
1800
1800
0000
f800
1800
1800
1800
1800
1800
1800
1800
1800
1800
3000
e000
ENDCHAR
STARTCHAR ch-107
ENCODING 107
SWIDTH 529 0
DWIDTH 9 0
BBX 7 17 1 -3
BITMAP
0000
0000
c000
c000
c000
c600
c400
c800
d000
f000
d800
cc00
c600
c600
0000
0000
0000
ENDCHAR
STARTCHAR ch-108
ENCODING 108
SWIDTH 529 0
DWIDTH 9 0
BBX 9 17 0 -3
BITMAP
0000
0000
f800
1800
1800
1800
1800
1800
1800
1800
1800
1800
1800
ff00
0000
0000
0000
ENDCHAR
STARTCHAR ch-109
ENCODING 109
SWIDTH 529 0
DWIDTH 9 0
BBX 9 17 0 -3
BITMAP
0000
0000
0000
0000
0000
6a00
7f00
6b00
6b00
6b00
6b00
6b00
6b00
6b00
0000
0000
0000
ENDCHAR
STARTCHAR ch-110
ENCODING 110
SWIDTH 529 0
DWIDTH 9 0
BBX 9 17 0 -3
BITMAP
0000
0000
0000
0000
0000
6e00
7700
6300
6300
6300
6300
6300
6300
6300
0000
0000
0000
ENDCHAR
STARTCHAR ch-111
ENCODING 111
SWIDTH 529 0
DWIDTH 9 0
BBX 9 17 0 -3
BITMAP
0000
0000
0000
0000
0000
3c00
6600
c300
c300
c300
c300
c300
6600
3c00
0000
0000
0000
ENDCHAR
STARTCHAR ch-112
ENCODING 112
SWIDTH 529 0
DWIDTH 9 0
BBX 9 17 0 -3
BITMAP
0000
0000
0000
0000
0000
6c00
7600
6300
6300
6300
6300
6300
6600
7c00
6000
6000
6000
ENDCHAR
STARTCHAR ch-113
ENCODING 113
SWIDTH 529 0
DWIDTH 9 0
BBX 7 17 1 -3
BITMAP
0000
0000
0000
0000
0000
3e00
6600
c600
c600
c600
c600
c600
6e00
3600
0600
0600
0600
ENDCHAR
STARTCHAR ch-114
ENCODING 114
SWIDTH 529 0
DWIDTH 9 0
BBX 7 17 1 -3
BITMAP
0000
0000
0000
0000
0000
e600
7e00
6600
6000
6000
6000
6000
6000
f800
0000
0000
0000
ENDCHAR
STARTCHAR ch-115
ENCODING 115
SWIDTH 529 0
DWIDTH 9 0
BBX 7 17 1 -3
BITMAP
0000
0000
0000
0000
0000
7c00
c600
c000
e000
7c00
0e00
0600
c600
7c00
0000
0000
0000
ENDCHAR
STARTCHAR ch-116
ENCODING 116
SWIDTH 529 0
DWIDTH 9 0
BBX 7 17 1 -3
BITMAP
0000
0000
0000
1000
3000
fe00
3000
3000
3000
3000
3000
3000
3000
1e00
0000
0000
0000
ENDCHAR
STARTCHAR ch-117
ENCODING 117
SWIDTH 529 0
DWIDTH 9 0
BBX 7 17 1 -3
BITMAP
0000
0000
0000
0000
0000
c600
c600
c600
c600
c600
c600
c600
ee00
7600
0000
0000
0000
ENDCHAR
STARTCHAR ch-118
ENCODING 118
SWIDTH 529 0
DWIDTH 9 0
BBX 7 17 1 -3
BITMAP
0000
0000
0000
0000
0000
c600
c200
c200
6600
6400
6400
3800
3800
3800
0000
0000
0000
ENDCHAR
STARTCHAR ch-119
ENCODING 119
SWIDTH 529 0
DWIDTH 9 0
BBX 7 17 1 -3
BITMAP
0000
0000
0000
0000
0000
c600
c200
da00
da00
da00
6c00
6c00
6c00
6c00
0000
0000
0000
ENDCHAR
STARTCHAR ch-120
ENCODING 120
SWIDTH 529 0
DWIDTH 9 0
BBX 7 17 1 -3
BITMAP
0000
0000
0000
0000
0000
c600
c200
6400
7800
1000
3c00
4c00
8600
c600
0000
0000
0000
ENDCHAR
STARTCHAR ch-121
ENCODING 121
SWIDTH 529 0
DWIDTH 9 0
BBX 7 17 1 -3
BITMAP
0000
0000
0000
0000
0000
c600
c200
c200
6600
6400
6400
3800
3800
1800
1000
3000
6000
ENDCHAR
STARTCHAR ch-122
ENCODING 122
SWIDTH 529 0
DWIDTH 9 0
BBX 7 17 1 -3
BITMAP
0000
0000
0000
0000
0000
fe00
8600
0c00
1800
3000
6000
c000
c200
fe00
0000
0000
0000
ENDCHAR
STARTCHAR ch-123
ENCODING 123
SWIDTH 529 0
DWIDTH 9 0
BBX 5 17 2 -3
BITMAP
0000
0000
3800
6000
6000
6000
6000
3000
3000
e000
3000
3000
6000
6000
6000
6000
3800
ENDCHAR
STARTCHAR ch-124
ENCODING 124
SWIDTH 529 0
DWIDTH 9 0
BBX 2 17 3 -3
BITMAP
0000
0000
c000
c000
c000
c000
c000
c000
c000
c000
c000
c000
c000
c000
c000
c000
c000
ENDCHAR
STARTCHAR ch-125
ENCODING 125
SWIDTH 529 0
DWIDTH 9 0
BBX 5 17 2 -3
BITMAP
0000
0000
e000
7000
3000
3000
3000
6000
6000
3800
6000
6000
3000
3000
3000
3000
e000
ENDCHAR
STARTCHAR ch-126
ENCODING 126
SWIDTH 529 0
DWIDTH 9 0
BBX 7 17 1 -3
BITMAP
0000
0000
0000
0000
0000
0000
0000
7200
ba00
9c00
0000
0000
0000
0000
0000
0000
0000
ENDCHAR
STARTCHAR ch-127
ENCODING 127
SWIDTH 0 0
DWIDTH 0 0
BBX 9 17 0 -3
BITMAP
0000
0000
2480
4900
9200
2480
4900
9200
2480
4900
9200
2480
4900
9200
0000
0000
0000
ENDCHAR
ENDFONT
